<?xml version="1.0" standalone="no"?>
<!DOCTYPE svg PUBLIC "-//W3C//DTD SVG 20010904//EN"
 "http://www.w3.org/TR/2001/REC-SVG-20010904/DTD/svg10.dtd">
<svg version="1.0" xmlns="http://www.w3.org/2000/svg"
 width="300.000000pt" height="300.000000pt" viewBox="0 0 300.000000 300.000000"
 preserveAspectRatio="xMidYMid meet">
<metadata>
Created by potrace 1.14, written by Peter Selinger 2001-2017
</metadata>
<g transform="translate(0.000000,300.000000) scale(0.100000,-0.100000)"
fill="#000000" stroke="none">
<path d="M0 1500 l0 -1500 1500 0 1500 0 0 1500 0 1500 -1500 0 -1500 0 0
-1500z m1134 988 c20 -28 20 -52 1 -68 -12 -10 -18 -10 -31 1 -21 17 -29 4
-49 -87 -9 -40 -23 -78 -31 -85 -18 -15 -22 -12 -29 30 -9 52 -33 102 -47 99
-8 -2 -27 7 -43 20 -28 22 -29 24 -13 50 19 30 52 40 74 21 9 -7 25 -31 36
-52 l20 -40 18 53 c26 78 64 101 94 58z m198 -25 c77 -46 169 -141 207 -213
17 -32 40 -92 51 -133 23 -92 49 -357 53 -532 l2 -130 -25 0 c-36 0 -47 33
-55 170 -6 115 -15 168 -15 93 0 -44 -22 -109 -51 -149 l-21 -30 28 -30 c30
-31 117 -79 144 -79 10 0 38 26 63 58 58 75 61 100 36 397 -10 127 -23 284
-29 350 -10 127 2 210 30 210 14 0 95 -185 106 -243 8 -40 2 -47 -25 -32 -26
13 -25 23 -5 -161 15 -137 15 -262 -2 -364 l-7 -40 44 40 c24 22 60 53 81 68
l36 28 -4 82 c-9 149 -24 281 -40 339 -15 52 -15 60 1 108 9 28 22 49 28 47
35 -11 63 -140 78 -357 7 -91 13 -166 14 -167 0 -1 30 7 65 18 78 25 126 15
178 -34 97 -92 93 -209 -10 -302 -47 -43 -161 -100 -184 -91 -8 3 -21 20 -29
38 l-14 33 -1 -56 c0 -122 43 -295 83 -328 16 -12 16 -10 2 29 -19 54 -19 103
1 169 48 164 259 212 437 99 50 -32 65 -65 25 -54 -13 3 -49 11 -81 18 -120
25 -306 -28 -354 -101 -28 -41 -29 -55 -5 -42 30 16 34 14 64 -40 37 -68 61
-94 113 -119 65 -32 121 -27 210 20 43 21 96 54 118 73 84 68 94 61 57 -36
-35 -88 -48 -171 -30 -182 8 -5 19 1 29 14 22 29 32 18 20 -22 -12 -43 -45
-70 -69 -57 -34 18 -35 93 -3 177 3 8 -18 -3 -48 -26 -111 -84 -210 -121 -324
-121 -48 0 -74 6 -120 30 -119 61 -160 126 -176 281 -6 57 -14 131 -18 164 -8
57 -9 58 -16 27 -12 -50 -77 -67 -239 -64 -153 3 -238 41 -312 141 l-37 50
-39 -30 c-53 -43 -315 -136 -447 -160 l-69 -12 20 -39 c12 -22 21 -56 21 -77
0 -44 -32 -151 -44 -151 -5 0 -9 24 -9 53 0 30 -6 62 -14 72 -12 17 -18 18
-40 7 -31 -14 -34 -28 -7 -35 13 -3 21 -17 26 -45 3 -22 17 -52 30 -66 20 -22
33 -26 79 -26 30 0 77 5 103 10 l48 11 0 72 c1 51 7 85 22 117 27 60 99 139
142 157 31 13 36 13 47 -1 17 -24 20 -20 16 18 -3 30 -1 35 27 44 29 10 33 9
41 -14 6 -14 10 -34 10 -44 0 -31 33 -59 104 -88 89 -36 111 -64 110 -140 0
-68 -29 -130 -75 -162 -53 -38 -157 -70 -229 -69 -104 1 -107 5 -52 66 45 49
49 52 111 57 77 7 201 45 201 61 0 20 -32 41 -117 77 l-82 35 -6 -26 c-18 -75
-84 -169 -161 -229 -89 -70 -269 -104 -350 -66 -36 17 -83 97 -85 143 -1 15
-4 37 -8 50 -6 21 -9 19 -45 -32 -44 -66 -99 -103 -214 -147 -46 -18 -95 -42
-109 -55 l-27 -22 65 -13 c50 -11 297 -15 1106 -19 573 -3 1044 -9 1048 -13
22 -22 -31 -35 -340 -84 -158 -25 -171 -25 -900 -31 -903 -7 -983 -1 -1030 71
-13 19 -14 32 -5 72 23 101 67 145 214 213 128 60 165 86 204 144 26 40 27 46
22 127 -5 73 -7 81 -17 60 -6 -14 -9 -28 -6 -32 8 -15 -63 -7 -102 11 -55 25
-100 76 -124 139 -36 91 -25 291 19 344 29 37 34 14 16 -72 -21 -95 -11 -166
30 -215 l26 -30 -21 42 c-33 67 -22 241 23 348 31 73 16 142 -46 207 -32 34
-33 38 -21 63 l14 26 29 -21 c38 -27 80 -113 80 -165 0 -22 -7 -65 -15 -95
-31 -109 -43 -200 -34 -236 12 -42 37 -56 92 -52 l42 3 0 45 c-1 150 -17 348
-35 428 -24 110 -25 141 -5 189 12 29 18 33 29 24 41 -34 83 -325 85 -599 l1
-53 48 28 c48 27 312 202 345 227 9 7 17 18 17 24 0 18 -58 56 -180 117 -102
52 -126 69 -207 151 -93 93 -93 93 -93 144 0 35 5 52 14 56 17 6 178 -75 183
-92 2 -7 -8 -16 -23 -21 l-28 -9 45 -31 c24 -17 94 -55 155 -86 66 -33 122
-69 138 -87 31 -38 31 -43 10 143 -14 132 -14 149 1 206 9 34 13 67 9 73 -4 7
-3 8 5 4 6 -4 14 0 17 9 9 22 43 13 116 -32z m322 -9 c25 -10 19 -66 -11 -112
-30 -44 -80 -88 -90 -78 -7 6 22 53 48 79 28 27 25 51 -6 43 -21 -5 -25 -3
-25 16 0 42 42 68 84 52z m494 -326 c56 -58 78 -154 52 -222 -15 -41 -30 -30
-30 23 0 64 -9 86 -58 142 -38 43 -40 47 -26 67 20 29 24 28 62 -10z m-1282
-110 c-4 -22 0 -38 19 -62 35 -46 33 -96 -3 -137 -30 -33 -73 -42 -95 -20 -25
25 5 172 49 238 19 31 38 19 30 -19z m1646 -373 c9 -20 8 -33 -7 -65 -18 -40
-85 -110 -105 -110 -15 0 -13 4 30 56 47 57 51 79 15 72 -21 -4 -25 -1 -25 18
0 52 71 75 92 29z m-49 -363 c-6 -9 -20 -16 -32 -15 -12 2 -21 -3 -21 -11 0
-25 29 -25 59 0 30 25 46 20 34 -12 -4 -11 -31 -42 -61 -71 -69 -68 -68 -88 8
-88 30 1 68 5 84 9 42 13 30 -13 -20 -41 -52 -30 -127 -31 -147 -2 -16 21 -11
65 12 107 10 18 9 25 -4 38 -25 25 -17 54 25 97 38 38 42 39 58 23 13 -13 14
-20 5 -34z m-1507 -50 c-28 -106 -18 -145 26 -105 17 15 18 15 18 -5 0 -63
-50 -101 -82 -62 -14 17 -16 33 -12 73 5 48 52 173 61 163 2 -2 -3 -31 -11
-64z m920 7 c51 -102 26 -263 -49 -310 -37 -24 -100 -20 -148 8 -54 32 -89
141 -89 279 0 69 4 78 34 62 30 -16 36 -28 36 -73 1 -120 81 -197 160 -155 15
8 22 5 34 -12 13 -18 16 -19 16 -6 0 25 -39 120 -57 140 -15 17 -12 51 8 106
12 30 24 21 55 -39z m-1300 24 c28 -37 7 -82 -27 -60 -10 6 -21 8 -24 5 -4 -3
-16 -42 -27 -85 -11 -43 -24 -84 -30 -90 -14 -17 -28 -7 -28 20 -1 37 -37 107
-56 107 -23 0 -54 29 -54 50 0 26 35 53 59 45 25 -8 57 -51 67 -91 7 -28 8
-26 22 26 15 62 36 90 65 90 11 0 26 -8 33 -17z m1389 -242 c-7 -22 -17 -60
-20 -85 -6 -38 -4 -47 9 -52 11 -4 22 1 31 12 21 29 30 9 14 -32 -17 -46 -42
-63 -66 -48 -27 17 -23 133 6 201 27 60 47 63 26 4z m-345 -72 c27 -17 50 -37
50 -45 0 -17 -38 -94 -46 -94 -8 0 -92 59 -98 69 -6 9 31 101 39 101 3 0 27
-14 55 -31z m-924 -14 c20 -21 23 -28 14 -45 -6 -11 -15 -18 -21 -15 -5 4 -24
-6 -42 -21 l-32 -27 48 6 c26 4 47 5 47 2 0 -12 -64 -36 -87 -33 -36 4 -39 23
-9 49 19 17 24 28 19 50 -12 60 20 77 63 34z m910 -345 c48 -34 52 -46 28 -93
-24 -47 -34 -49 -78 -17 l-39 30 -19 -30 c-10 -17 -23 -30 -29 -30 -8 0 -58
33 -92 61 -12 10 29 99 45 99 7 0 30 -11 50 -25 20 -14 39 -25 41 -25 3 0 10
14 17 30 7 17 17 30 22 30 5 0 29 -14 54 -30z"/>
<path d="M1264 2313 c6 -32 21 -194 36 -408 6 -82 13 -168 15 -190 2 -22 4
-61 4 -87 1 -36 5 -48 16 -48 13 0 14 7 8 38 -14 66 -8 184 11 222 39 76 98
92 140 38 13 -18 31 -49 40 -68 l16 -35 -6 70 c-3 39 -11 99 -17 135 l-12 65
-28 -47 c-15 -27 -30 -48 -32 -48 -6 0 -105 71 -105 75 0 18 44 95 55 95 7 0
34 -16 59 -35 55 -42 58 -30 15 51 -33 65 -92 130 -156 175 -53 37 -66 37 -59
2z"/>
<path d="M1195 1841 c-9 -42 -70 -93 -265 -223 -192 -128 -238 -151 -302 -152
-56 0 -54 -9 4 -25 55 -16 61 -15 64 5 6 41 64 38 64 -3 l0 -26 73 7 c158 16
416 94 409 124 -1 7 -9 80 -16 163 -8 83 -17 153 -20 156 -2 2 -7 -9 -11 -26z
m-47 -190 c4 -38 -24 -87 -75 -132 -46 -40 -58 -21 -15 24 34 37 54 72 45 81
-3 3 -17 3 -29 0 -32 -8 -32 19 0 51 34 34 70 22 74 -24z"/>
<path d="M1405 1773 c-16 -16 -24 -33 -39 -80 -6 -18 -4 -22 7 -17 10 3 18 -5
25 -25 13 -37 17 -37 60 -11 18 11 37 18 43 15 13 -9 12 -3 -10 47 -16 37 -54
88 -66 88 -2 0 -11 -7 -20 -17z"/>
<path d="M2100 1693 c-31 -5 -90 -35 -90 -46 0 -4 8 -3 18 2 22 12 22 13 29
-92 5 -78 5 -79 29 -73 49 13 194 85 194 97 0 26 -47 80 -86 99 -40 20 -47 21
-94 13z"/>
<path d="M1917 1604 c-27 -19 -81 -66 -120 -104 l-72 -69 55 0 c30 0 89 6 130
12 l75 12 0 92 c0 56 -4 93 -10 93 -5 0 -32 -16 -58 -36z"/>
<path d="M760 1290 c0 -5 5 -10 10 -10 6 0 10 5 10 10 0 6 -4 10 -10 10 -5 0
-10 -4 -10 -10z"/>
<path d="M1192 1235 c-33 -18 -70 -55 -93 -92 -19 -30 -19 -34 -5 -48 9 -9 20
-23 25 -33 12 -20 42 -8 96 39 30 27 38 30 46 18 13 -18 1 88 -13 114 -10 20
-24 20 -56 2z"/>
<path d="M286 771 c-10 -11 -16 -26 -13 -33 4 -10 6 -10 6 1 1 8 8 23 18 33 9
10 14 18 11 18 -3 0 -13 -9 -22 -19z"/>
<path d="M817 1888 c-9 -31 0 -39 28 -26 28 13 30 19 13 36 -18 18 -35 14 -41
-10z"/>
</g>
</svg>
